{"title":"Jab Tak Hai Jaan (2012) - (Audio Cleaned) HDCAM - MPEG - Exclusi","uid":7822568,"size":1010133048,"categoryP":"video","categoryS":"movies","magnet":"?xt=urn:btih:f5983fb18f7879fc8792b4febf4c63193636f9df&amp;dn=Jab+Tak+Hai+Jaan+%282012%29+-+%28Audio+Cleaned%29+HDCAM+-+MPEG+-+Exclusi&amp;tr=udp%3A%2F%2Ftracker.openbittorrent.com%3A80&amp;tr=udp%3A%2F%2Fopen.demonii.com%3A1337&amp;tr=udp%3A%2F%2Ftracker.coppersurfer.tk%3A6969&amp;tr=udp%3A%2F%2Fexodus.desync.com%3A6969","seeders":1,"leechers":0,"uploader":"tykoon123","files":-1,"time":1352860017,"description":"Poster: &lt;a href=&quot;\nhttp://www.hindustantimes.com/Images/Popup/2012/9/JTHJ-poster.jpg&quot; rel=&quot;nofollow&quot; target=&quot;_NEW&quot;&gt;\nhttp://www.hindustantimes.com/Images/Popup/2012/9/JTHJ-poster.jpg&lt;/a&gt;\n\nInfo:\nGeneral\nFormat : MPEG-PS\nFile size : 963 MiB\nDuration : 2h 38mn\nOverall bit rate mode : Variable\nOverall bit rate : 850 Kbps\nVideo #224\nID : 224 (0xE0)\nFormat : MPEG Video\nFormat version : Version 2\nFormat profile : Main@Main\nFormat settings, BVOP : Yes\nFormat settings, Matrix : Default\nDuration : 2h 38mn\nBit rate mode : Variable\nBit rate : 705 Kbps\nMaximum bit rate : 9 672 Kbps\nWidth : 352 pixels\nHeight : 288 pixels\nDisplay aspect ratio : 4:3\nFrame rate : 25.000 fps\nStandard : PAL\nColor space : YUV\nChroma subsampling : 4:2:0\nBit depth : 8 bits\nScan type : Progressive\nCompression mode : Lossy\nBits/(Pixel*Frame) : 0.278\nStream size : 799 MiB (83%)\nAudio #192\nID : 192 (0xC0)\nFormat : MPEG Audio\nFormat version : Version 1\nFormat profile : Layer 2\nDuration : 2h 38mn\nBit rate mode : Constant\nBit rate : 128 Kbps\nChannel(s) : 2 channels\nSampling rate : 48.0 KHz\nCompression mode : Lossy\nStream size : 145 MiB (15%)\n\nScreens: &lt;a href=&quot;\nhttp://imgr.us/images/2j36al2303yx3q40csz.jpg&quot; rel=&quot;nofollow&quot; target=&quot;_NEW&quot;&gt;\nhttp://imgr.us/images/2j36al2303yx3q40csz.jpg&lt;/a&gt;","torrent":{"xt":"urn:btih:f5983fb18f7879fc8792b4febf4c63193636f9df","amp;dn":"Jab+Tak+Hai+Jaan+%282012%29+-+%28Audio+Cleaned%29+HDCAM+-+MPEG+-+Exclusi","amp;tr":["udp%3A%2F%2Ftracker.openbittorrent.com%3A80","udp%3A%2F%2Fopen.demonii.com%3A1337","udp%3A%2F%2Ftracker.coppersurfer.tk%3A6969","udp%3A%2F%2Fexodus.desync.com%3A6969"],"infoHash":"f5983fb18f7879fc8792b4febf4c63193636f9df","infoHashBuffer":{"type":"Buffer","data":[245,152,63,177,143,120,121,252,135,146,180,254,191,76,99,25,54,54,249,223]},"announce":[],"urlList":[]}}